<mxfile host="app.diagrams.net" modified="2021-10-30T12:10:04.658Z" agent="5.0 (Windows NT 10.0; Win64; x64) AppleWebKit/537.36 (KHTML, like Gecko) Chrome/93.0.4577.82 Safari/537.36" etag="PwOG9eyhBZYb7QJdF-Pb" version="15.5.6" type="github" pages="2">
  <diagram id="WGgWUmGZT2Jk0cvahEpU" name="GameServer">
    <mxGraphModel dx="1993" dy="1194" grid="1" gridSize="10" guides="1" tooltips="1" connect="1" arrows="1" fold="1" page="1" pageScale="1" pageWidth="827" pageHeight="1169" math="0" shadow="0">
      <root>
        <mxCell id="0" />
        <mxCell id="1" parent="0" />
        <mxCell id="456YiPM5CASM9Ew9QdIp-3" value="&lt;font style=&quot;font-size: 25px&quot;&gt;GS&lt;/font&gt;" style="rounded=0;whiteSpace=wrap;html=1;" parent="1" vertex="1">
          <mxGeometry x="354" y="40" width="120" height="60" as="geometry" />
        </mxCell>
        <mxCell id="456YiPM5CASM9Ew9QdIp-4" value="负责地图管理" style="rounded=0;whiteSpace=wrap;html=1;fontSize=25;" parent="1" vertex="1">
          <mxGeometry x="80" y="190" width="180" height="60" as="geometry" />
        </mxCell>
        <mxCell id="456YiPM5CASM9Ew9QdIp-5" value="负责角色，NPC管理" style="rounded=0;whiteSpace=wrap;html=1;fontSize=25;" parent="1" vertex="1">
          <mxGeometry x="70" y="350" width="230" height="60" as="geometry" />
        </mxCell>
        <mxCell id="456YiPM5CASM9Ew9QdIp-6" value="负责非战斗角色的移动" style="rounded=0;whiteSpace=wrap;html=1;fontSize=25;" parent="1" vertex="1">
          <mxGeometry x="70" y="500" width="230" height="60" as="geometry" />
        </mxCell>
        <mxCell id="456YiPM5CASM9Ew9QdIp-7" value="负责角色技能的受击判断，拉去同个ECS服进入战斗？？" style="rounded=0;whiteSpace=wrap;html=1;fontSize=25;" parent="1" vertex="1">
          <mxGeometry x="70" y="640" width="300" height="120" as="geometry" />
        </mxCell>
      </root>
    </mxGraphModel>
  </diagram>
  <diagram id="YohwLOSvh4ewAdbJvnKw" name="Base">
    <mxGraphModel dx="1993" dy="1194" grid="1" gridSize="10" guides="1" tooltips="1" connect="1" arrows="1" fold="1" page="1" pageScale="1" pageWidth="827" pageHeight="1169" math="0" shadow="0">
      <root>
        <mxCell id="I8S6XLJ3EVu2pg4-RtFR-0" />
        <mxCell id="I8S6XLJ3EVu2pg4-RtFR-1" parent="I8S6XLJ3EVu2pg4-RtFR-0" />
      </root>
    </mxGraphModel>
  </diagram>
</mxfile>
